<svg xmlns="http://www.w3.org/2000/svg" xmlns:xlink="http://www.w3.org/1999/xlink" width="276" height="123.933" viewBox="0 0 276 123.933"><defs><clipPath id="clip-path"><rect id="Rectangle_1" data-name="Rectangle 1" width="276" height="123.933" fill="#e63312"></rect></clipPath></defs><g id="Group_1" data-name="Group 1" clip-path="url(#clip-path)"><path id="Path_1" data-name="Path 1" d="M242.232,54.8q-.532.942-1.184.942a4.043,4.043,0,0,1-1.481-.472,8.789,8.789,0,0,1-3.761-3.5,5.432,5.432,0,0,1-.741-2.8,2.157,2.157,0,0,1,.325-1.09,4.39,4.39,0,0,1,.888-1.061,5.179,5.179,0,0,1,1.363-.853,4.986,4.986,0,0,1,1.689-.413,2.768,2.768,0,0,1,1.807.855,4.924,4.924,0,0,1,1.037,1.767,9.762,9.762,0,0,1,.474,2.12,17.817,17.817,0,0,1,.118,1.856,5.428,5.428,0,0,1-.534,2.651M206.571,53.11a7.168,7.168,0,0,1-1.866,1.837,8.02,8.02,0,0,1-2.4,1.1,9.078,9.078,0,0,1-2.369.355,4.846,4.846,0,0,1-1.333-.178.823.823,0,0,1-.622-.889,4.43,4.43,0,0,1,1.007-2.814,11.376,11.376,0,0,1,2.282-2.192,13.658,13.658,0,0,1,2.487-1.451,12.883,12.883,0,0,1,1.689-.652q1.3,0,1.6.711a4.127,4.127,0,0,1,.3,1.6,4.369,4.369,0,0,1-.77,2.576m-90.579-3.05a9.418,9.418,0,0,1-1.9,1.066q.118-1.066.356-2.222a10.594,10.594,0,0,1,.681-2.163,4.9,4.9,0,0,1,1.155-1.658,2.7,2.7,0,0,1,1.9-.652,2.256,2.256,0,0,1,1.126.267.912.912,0,0,1,.474.858,2.633,2.633,0,0,1-.533,1.393,9.2,9.2,0,0,1-1.392,1.6,18.048,18.048,0,0,1-1.867,1.511m-25.8,60.959a3.286,3.286,0,0,1-.593,1.126,1.425,1.425,0,0,1-.652.444,2.065,2.065,0,0,1-.444.089,4.875,4.875,0,0,1-2.369-.652A8.3,8.3,0,0,1,84,110.338a8.59,8.59,0,0,1-1.54-2.4,6.9,6.9,0,0,1-.592-2.784,18.084,18.084,0,0,1,.533-3.881,37.207,37.207,0,0,1,1.51-4.917,42.579,42.579,0,0,1,2.37-5.155,33.685,33.685,0,0,1,3.051-4.709q.236,4.975.473,8.441t.355,5.984q.118,2.518.207,4.354t.089,3.614a6.778,6.778,0,0,1-.267,2.132M83.8,59.005a5.5,5.5,0,0,1-3.17.947,15.584,15.584,0,0,1-2.428-.178,5.659,5.659,0,0,1-1.955-.651,3.428,3.428,0,0,1-1.3-1.3,4.114,4.114,0,0,1-.474-2.073,1.907,1.907,0,0,1,.534-1.3,4.94,4.94,0,0,1,1.362-1.037,8.565,8.565,0,0,1,1.807-.711,7.109,7.109,0,0,1,1.866-.267,6.4,6.4,0,0,1,2.34.385,5.583,5.583,0,0,1,1.6.918,3.83,3.83,0,0,1,.918,1.1,2.176,2.176,0,0,1,.3.977,3.587,3.587,0,0,1-1.393,3.2M44.074,50.06a9.417,9.417,0,0,1-1.9,1.066q.118-1.066.355-2.222a10.627,10.627,0,0,1,.681-2.163,4.9,4.9,0,0,1,1.155-1.658,2.7,2.7,0,0,1,1.9-.652,2.258,2.258,0,0,1,1.126.267.912.912,0,0,1,.474.858,2.63,2.63,0,0,1-.534,1.393,9.157,9.157,0,0,1-1.392,1.6,17.987,17.987,0,0,1-1.866,1.511M13.951,34.42q-.149,2.724-.355,5.213t-.5,4.413a10.348,10.348,0,0,1-.592,2.518,7.125,7.125,0,0,1-.592-2.4q-.238-1.806-.385-4.265t-.178-5.213q-.031-2.754-.03-5.242,0-2.014.118-4.118t.355-3.761a15.951,15.951,0,0,1,.592-2.726q.355-1.066.829-1.066.3,0,.474,1.244t.267,3.08q.089,1.836.119,3.851t.029,3.5q0,2.252-.148,4.976M275.467,54a5.048,5.048,0,0,0-1.392-1.777,5.921,5.921,0,0,0-1.866-1.007,6.162,6.162,0,0,0-1.895-.326,10.549,10.549,0,0,0-1.334.117,3.536,3.536,0,0,0-1.689.76q-.711.585-1.451,1.258t-1.511,1.258a9.49,9.49,0,0,1-1.54.965,3.455,3.455,0,0,1-1.54.381,2.457,2.457,0,0,1-1.511-.65,10.573,10.573,0,0,1-1.629-1.714,20.762,20.762,0,0,1-1.6-2.393,26.256,26.256,0,0,1-1.363-2.688,36.264,36.264,0,0,0-3.97-6.853A20.941,20.941,0,0,0,247,37.079a14.355,14.355,0,0,0-4.057-2.157,12.044,12.044,0,0,0-3.614-.62,14.753,14.753,0,0,0-5.006,1.007,18.555,18.555,0,0,0-5.125,2.874,16.736,16.736,0,0,0-3.969,4.5,11.14,11.14,0,0,0-1.6,5.895,16.837,16.837,0,0,0,1.452,6.812c.046.106.1.205.151.311-.194.4-.378.81-.595,1.171a5.27,5.27,0,0,1-1.3,1.481,3.317,3.317,0,0,1-2.073.592,1.975,1.975,0,0,1-2.133-1.57,22.317,22.317,0,0,1-.414-5.125q0-4.739-.118-9.537t-.3-9.45q-.178-4.649-.385-9.034t-.444-8.412q-.178-2.843-.3-5.45T217.056,5.1a3.955,3.955,0,0,0-.415-1.659,5.6,5.6,0,0,0-1.214-1.659A6.416,6.416,0,0,0,213.412.5a7.139,7.139,0,0,0-2.754-.5,4.737,4.737,0,0,0-2.844.741A4.524,4.524,0,0,0,206.3,2.7a8.556,8.556,0,0,0-.592,2.814q-.089,1.6-.089,3.259,0,2.488.267,5.273t.622,6.161q.355,3.377.622,7.494t.266,9.271q-.474-.058-.888-.089c-.277-.02-.573-.03-.889-.03a15.347,15.347,0,0,0-6.665,1.6,23.225,23.225,0,0,0-6.072,4.206,22.428,22.428,0,0,0-4.443,5.924,15.713,15.713,0,0,0-1.221,3.137,6.9,6.9,0,0,1-1.621.24,3.61,3.61,0,0,1-2.518-1.007,15.1,15.1,0,0,1-2.132-2.488q-1.037-1.479-2.133-3.258a20.381,20.381,0,0,0-2.488-3.258,12.973,12.973,0,0,0-3.229-2.488,8.858,8.858,0,0,0-4.325-1.007,13.133,13.133,0,0,0-4,.651,10.786,10.786,0,0,0-4.295,3.022,11.522,11.522,0,0,0-3.88-2.488,12.906,12.906,0,0,0-4.887-.948,10.787,10.787,0,0,0-5.095,1.126,13.66,13.66,0,0,0-3.732,2.873,28.348,28.348,0,0,0-2.932,3.821q-1.334,2.074-2.7,3.97a32.712,32.712,0,0,0-1.9,2.873c-.077.131-.135.266-.2.4-.077.087-.166.163-.242.252q-.682.8-1.392,1.511-1.066,1.066-2.044,1.866a10.22,10.22,0,0,1-2.1,1.333,10.473,10.473,0,0,1-2.518.8,17.71,17.71,0,0,1-3.288.266q-1.245,0-2.666-.029a6.359,6.359,0,0,1-2.014-.267,16.072,16.072,0,0,0,5.716-2.163,14.325,14.325,0,0,0,3.792-3.466,13.812,13.812,0,0,0,2.132-4.147,13.5,13.5,0,0,0,.03-8.383,10.968,10.968,0,0,0-2.192-3.97,12.291,12.291,0,0,0-4.028-3.021,13.835,13.835,0,0,0-6.1-1.215,13.133,13.133,0,0,0-7.228,1.9,15.812,15.812,0,0,0-4.769,4.649,19.51,19.51,0,0,0-2.606,5.866,22.705,22.705,0,0,0-.8,5.6,15.949,15.949,0,0,0,.563,4c.027.1.07.205.1.308l-5.815,6.475a44.664,44.664,0,0,0-.977-6.339A41.752,41.752,0,0,0,94.992,50a55.978,55.978,0,0,0-2.34-5.213q-1.3-2.546-2.9-5.154-1.066-1.718-2.073-3.081a2.869,2.869,0,0,0-2.31-1.363,5.679,5.679,0,0,0-2.1.411,5.939,5.939,0,0,0-1.836,1.144,5.314,5.314,0,0,0-1.273,1.818A6,6,0,0,0,79.678,41a17.268,17.268,0,0,0-6.843,1.425,18.136,18.136,0,0,0-5.213,3.444,14.735,14.735,0,0,0-3.318,4.69,13.594,13.594,0,0,0-.947,3.075c-.115.127-.245.24-.355.37q-.682.8-1.392,1.511-1.066,1.066-2.044,1.866a10.209,10.209,0,0,1-2.1,1.333,10.458,10.458,0,0,1-2.518.8,17.7,17.7,0,0,1-3.288.266q-1.245,0-2.666-.029a6.359,6.359,0,0,1-2.014-.267,16.072,16.072,0,0,0,5.716-2.163,14.314,14.314,0,0,0,3.791-3.466A13.8,13.8,0,0,0,58.618,49.7a13.5,13.5,0,0,0,.03-8.383,10.968,10.968,0,0,0-2.192-3.97,12.291,12.291,0,0,0-4.028-3.021,13.836,13.836,0,0,0-6.1-1.215,13.133,13.133,0,0,0-7.228,1.9,15.806,15.806,0,0,0-4.769,4.649,19.5,19.5,0,0,0-2.606,5.866,22.705,22.705,0,0,0-.8,5.6,15.949,15.949,0,0,0,.563,4c.073.28.184.565.271.847-.435.658-.839,1.307-1.189,1.936a29.719,29.719,0,0,1-2.725,4.118,11.094,11.094,0,0,1-3.377,2.844,11.052,11.052,0,0,1-5.272,1.066q-.415,0-.889-.889a15.339,15.339,0,0,1-.918-2.162,23.726,23.726,0,0,1-.77-2.755,23.308,23.308,0,0,1-.445-2.666,61.165,61.165,0,0,0,6.695-13.8,49.588,49.588,0,0,0,2.548-16.114,59.345,59.345,0,0,0-.622-9.153,19.82,19.82,0,0,0-2.073-6.546,10.006,10.006,0,0,0-3.791-3.939,11.527,11.527,0,0,0-5.776-1.333,10,10,0,0,0-6.576,2.1,14.462,14.462,0,0,0-4.028,5.539A28.339,28.339,0,0,0,.533,22.009,72.916,72.916,0,0,0,0,30.865q0,3.851.444,8.8T1.866,49.734a89.831,89.831,0,0,0,2.518,10.04,45.467,45.467,0,0,0,3.733,8.8,21.815,21.815,0,0,0,5.035,6.22,9.886,9.886,0,0,0,6.458,2.34,22.88,22.88,0,0,0,8.116-1.3,20.141,20.141,0,0,0,6.1-3.613,27.968,27.968,0,0,0,4.828-5.51c.03-.045.061-.1.092-.142.372.305.722.629,1.122.913a19.748,19.748,0,0,0,5.123,2.576,19.471,19.471,0,0,0,6.31.978,31.948,31.948,0,0,0,7.02-.681,19.906,19.906,0,0,0,5.361-2.014,23.8,23.8,0,0,0,3.456-2.418A14.861,14.861,0,0,0,68.867,67.5a17.239,17.239,0,0,0,5.6,2.849,21.278,21.278,0,0,0,6.1.92,7.876,7.876,0,0,0,3.969-1.215,23.017,23.017,0,0,0,3.615-2.576c0,.552.009.908.029,1.066a2.9,2.9,0,0,0,.06.354c.019.08.038.187.059.326a8.474,8.474,0,0,1,.03.918q-3.376,3.91-6.575,7.85A62.428,62.428,0,0,0,76.094,86.2a46.442,46.442,0,0,0-3.969,8.945,32.4,32.4,0,0,0-1.51,10.012,14.068,14.068,0,0,0,.562,3.7A22.277,22.277,0,0,0,72.806,113a24.39,24.39,0,0,0,2.607,4.057,19.851,19.851,0,0,0,3.555,3.5,17.714,17.714,0,0,0,4.383,2.458,14.147,14.147,0,0,0,5.154.918,12.116,12.116,0,0,0,10.367-5.065,14.735,14.735,0,0,0,2.311-4.977,21.433,21.433,0,0,0,.71-5.361q0-2.9-.118-5.806t-.356-6.693q-.237-3.792-.592-8.827t-.77-12.2q1.9-2.133,3.317-3.555t2.814-2.695q1.391-1.275,2.932-2.754c.128-.124.27-.265.405-.4a20.343,20.343,0,0,0,2.26,1.877,19.759,19.759,0,0,0,5.124,2.576,19.468,19.468,0,0,0,6.309.978,31.942,31.942,0,0,0,7.02-.681,19.907,19.907,0,0,0,5.361-2.014,23.934,23.934,0,0,0,4.414-3.2,54.622,54.622,0,0,0,4.176-4.295,5.364,5.364,0,0,0,.949-1.5,14.82,14.82,0,0,0,1.182-1.7q1.067-1.717,1.719-2.813t1.184-1.9q.534-.8,1.066-1.452A15.7,15.7,0,0,1,151.714,50a5.443,5.443,0,0,1,1.066,2.31,21.673,21.673,0,0,1,.415,2.873q.118,1.512.3,2.993a8.064,8.064,0,0,0,.77,2.666,4.739,4.739,0,0,0,1.777,1.926,6.253,6.253,0,0,0,3.317.741,5.519,5.519,0,0,0,3.5-1.155,4.881,4.881,0,0,0,1.837-3.051,44.677,44.677,0,0,1,1.3-5.421,8.194,8.194,0,0,1,2.784-4.058,26.689,26.689,0,0,0,2.163,4.206,23.7,23.7,0,0,0,3.614,4.5,20.683,20.683,0,0,0,4.917,3.584,12.692,12.692,0,0,0,6.013,1.452,19.86,19.86,0,0,0,4.362-.456,12.918,12.918,0,0,0,1.146,1.2,14.145,14.145,0,0,0,4.236,2.518,13.023,13.023,0,0,0,4.65.888,17.14,17.14,0,0,0,5.776-.977q2.754-.978,4.887-1.985a17.023,17.023,0,0,0,2.1,1.985,17.446,17.446,0,0,0,2.636,1.747,18.342,18.342,0,0,0,2.933,1.273,9.593,9.593,0,0,0,3.051.5,12.9,12.9,0,0,0,5.894-1.422,19.909,19.909,0,0,0,4.946-3.495c.248-.241.475-.489.706-.735a19.5,19.5,0,0,0,1.693.972,14.475,14.475,0,0,0,6.605,1.6,10.652,10.652,0,0,0,2.962-.446,12.622,12.622,0,0,0,2.9-1.251,13.071,13.071,0,0,0,2.518-1.935,8.746,8.746,0,0,0,1.807-2.5,17.756,17.756,0,0,0,1.481,1.816A14.417,14.417,0,0,0,255,64.829a14.022,14.022,0,0,0,2.844,1.578,8.753,8.753,0,0,0,3.406.655,15.744,15.744,0,0,0,4.058-.711,22.3,22.3,0,0,0,4.887-2.044,15.527,15.527,0,0,0,4.088-3.288A6.547,6.547,0,0,0,276,56.576,5.824,5.824,0,0,0,275.467,54" fill="#e63312"></path></g></svg>