<svg xmlns="http://www.w3.org/2000/svg" xmlns:xlink="http://www.w3.org/1999/xlink" width="251.273" height="128.278" viewBox="0 0 251.273 128.278"><defs><clipPath id="clip-path"><rect id="Rectangle_294" data-name="Rectangle 294" width="251.273" height="128.278" fill="none"></rect></clipPath></defs><g id="Group_9187" data-name="Group 9187" clip-path="url(#clip-path)"><path id="Path_8922" data-name="Path 8922" d="M84.952,126.278a23.823,23.823,0,0,1-8.647-1.58,26.843,26.843,0,0,1-6.607-3.707,28.624,28.624,0,0,1-5.094-5.015,32.358,32.358,0,0,1-3.439-5.364,30.716,30.716,0,0,1-2.222-5.691,23.76,23.76,0,0,1-.9-6.284,38.928,38.928,0,0,1,1.832-11.979q.732-2.268,1.678-4.464a39.7,39.7,0,0,1-7.181.6A28.767,28.767,0,0,1,46.76,81.8a28.945,28.945,0,0,1-7.438,4.142,30.962,30.962,0,0,1-11,1.866,20.341,20.341,0,0,1-13.061-4.7,30.122,30.122,0,0,1-7.013-8.538,49.7,49.7,0,0,1-4.086-9.584A86.277,86.277,0,0,1,1.75,55.369C1.142,52.187.693,49,.414,45.9.139,42.84,0,40.04,0,37.574a72.326,72.326,0,0,1,.529-8.763,35.539,35.539,0,0,1,2.56-9.747A24.011,24.011,0,0,1,9.836,9.929,20.394,20.394,0,0,1,23.014,5.4,21.515,21.515,0,0,1,33.8,8.1,20.3,20.3,0,0,1,41.54,16a28.449,28.449,0,0,1,3.1,9.424c.12.761.224,1.541.311,2.346a25.375,25.375,0,0,1,5.335-.547A23.451,23.451,0,0,1,60.65,29.456,22.27,22.27,0,0,1,67.9,34.987q.193.226.378.456.52-.2,1.049-.378a16.318,16.318,0,0,1,1.563-1.647,17.063,17.063,0,0,1,5.255-3.29,16.848,16.848,0,0,1,6.234-1.2A14.376,14.376,0,0,1,93.028,33.71a26.054,26.054,0,0,1,3.849-3A22.821,22.821,0,0,1,109.4,27.221a23.453,23.453,0,0,1,10.365,2.233,22.468,22.468,0,0,1,6.743,4.964q.257-.145.52-.283a20.951,20.951,0,0,1,9.885-2.336,22.836,22.836,0,0,1,6.744,1.011l.275-.09a23.033,23.033,0,0,1,7.006-1.116,19.356,19.356,0,0,1,9.422,2.331,23.083,23.083,0,0,1,3.965,2.748,31.234,31.234,0,0,1,5.762-3.692c-.084-1.03-.174-2-.269-2.9-.2-1.863-.372-3.6-.523-5.178-.182-1.9-.274-3.75-.274-5.5,0-1.131.031-2.259.091-3.354a19.2,19.2,0,0,1,1.4-6.319A15.6,15.6,0,0,1,185.36,0a18.012,18.012,0,0,1,6.94,1.345,17.43,17.43,0,0,1,5.438,3.521,16.79,16.79,0,0,1,3.6,5.008,15.355,15.355,0,0,1,1.483,6.518c0,1.283.028,2.553.085,3.774.061,1.341.139,2.778.233,4.278v.049c.083,1.416.164,2.9.242,4.419a22.717,22.717,0,0,1,5.543-.717,22.089,22.089,0,0,1,6.655,1.079,24.007,24.007,0,0,1,6.847,3.551,29.011,29.011,0,0,1,5.938,5.948,35.593,35.593,0,0,1,2.306,3.433q.486-.1.978-.168a19.994,19.994,0,0,1,2.744-.209,17.275,17.275,0,0,1,5.312.86,17.057,17.057,0,0,1,5.356,2.872,16.281,16.281,0,0,1,4.54,5.686h0a16.894,16.894,0,0,1,1.669,7.458,17.513,17.513,0,0,1-4.447,11.706,25.01,25.01,0,0,1-6.545,5.284,30.621,30.621,0,0,1-6.69,2.79,24.492,24.492,0,0,1-6.647,1.043,19.361,19.361,0,0,1-7.5-1.48q-.274-.114-.545-.235a22.858,22.858,0,0,1-2.668.96l-.02.006a21,21,0,0,1-5.823.846,23.954,23.954,0,0,1-4.913-.506q-.518.288-1.051.558a22.748,22.748,0,0,1-10.348,2.48,20.123,20.123,0,0,1-6.362-1.039,27.409,27.409,0,0,1-4.361-1.891l-.071-.039a26.478,26.478,0,0,1-6.785.874,22.9,22.9,0,0,1-8.158-1.526,23.869,23.869,0,0,1-3.871-1.883,22.538,22.538,0,0,1-10.436-2.6q-.516-.271-1.019-.562a16.724,16.724,0,0,1-9.822,3.116,17.587,17.587,0,0,1-7.832-1.706,31.978,31.978,0,0,1-5.712,4.107,28.612,28.612,0,0,1-7.674,2.917,37.986,37.986,0,0,1-8.485.866,29.24,29.24,0,0,1-6.3-.667q.032.46.063.9c.194,2.738.359,5.213.493,7.355s.237,4.094.306,5.763c.071,1.757.107,3.529.107,5.272a29.888,29.888,0,0,1-.971,7.455,24.321,24.321,0,0,1-3.813,8.175,22.152,22.152,0,0,1-18.425,9.235M229,55.654h0m-.038-.049h0M209.217,53.93l.007.1.025-.052-.031-.046m-.755-.964.092.2.009-.087-.1-.116M207.8,52.378ZM80.918,50.2l.017.01-.014-.009h0" fill="#e63312" stroke="#e63312" stroke-width="1"></path><path id="Path_8923" data-name="Path 8923" d="M250.2,68.158a4.147,4.147,0,0,0-1.145-1.461,4.867,4.867,0,0,0-1.534-.828,5.069,5.069,0,0,0-1.558-.268,8.6,8.6,0,0,0-1.1.1,2.908,2.908,0,0,0-1.388.624q-.584.481-1.193,1.034t-1.242,1.034a7.838,7.838,0,0,1-1.265.793,2.843,2.843,0,0,1-1.266.313,2.019,2.019,0,0,1-1.242-.534,8.723,8.723,0,0,1-1.339-1.408,17.119,17.119,0,0,1-1.315-1.967,21.52,21.52,0,0,1-1.12-2.209,29.832,29.832,0,0,0-3.263-5.633,17.228,17.228,0,0,0-3.433-3.5,11.8,11.8,0,0,0-3.335-1.773,9.9,9.9,0,0,0-2.97-.509,12.123,12.123,0,0,0-4.115.827,15.234,15.234,0,0,0-4.212,2.363,13.751,13.751,0,0,0-3.263,3.7,9.16,9.16,0,0,0-1.314,4.845,13.839,13.839,0,0,0,1.193,5.6c.038.087.084.169.124.256-.16.325-.311.665-.489.962a4.321,4.321,0,0,1-1.071,1.218,2.728,2.728,0,0,1-1.7.487,1.623,1.623,0,0,1-1.753-1.29,18.327,18.327,0,0,1-.34-4.213q0-3.9-.1-7.839t-.243-7.767q-.146-3.821-.317-7.426t-.365-6.915q-.146-2.336-.244-4.48t-.1-4.333a3.252,3.252,0,0,0-.341-1.364,4.607,4.607,0,0,0-1-1.364,5.281,5.281,0,0,0-1.656-1.046,5.862,5.862,0,0,0-2.264-.414,3.893,3.893,0,0,0-2.337.608,3.711,3.711,0,0,0-1.241,1.607,7.009,7.009,0,0,0-.487,2.313q-.073,1.315-.073,2.678,0,2.045.219,4.334t.511,5.064q.293,2.776.511,6.161t.219,7.621q-.39-.048-.73-.073t-.73-.025a12.618,12.618,0,0,0-5.479,1.315,19.1,19.1,0,0,0-4.991,3.458,18.442,18.442,0,0,0-3.652,4.869,12.963,12.963,0,0,0-1,2.578,5.649,5.649,0,0,1-1.333.2,2.969,2.969,0,0,1-2.069-.828,12.429,12.429,0,0,1-1.753-2.045q-.852-1.216-1.753-2.678a16.8,16.8,0,0,0-2.045-2.679,10.683,10.683,0,0,0-2.654-2.045,7.284,7.284,0,0,0-3.555-.828,10.8,10.8,0,0,0-3.287.535,8.86,8.86,0,0,0-3.53,2.484,9.488,9.488,0,0,0-3.19-2.045,10.612,10.612,0,0,0-4.017-.779,8.867,8.867,0,0,0-4.188.925,11.241,11.241,0,0,0-3.068,2.362A23.355,23.355,0,0,0,138.811,62q-1.1,1.7-2.216,3.263a26.937,26.937,0,0,0-1.558,2.362c-.063.107-.111.219-.166.329-.064.071-.137.133-.2.207q-.56.657-1.144,1.242-.876.876-1.68,1.534a8.393,8.393,0,0,1-1.729,1.1,8.573,8.573,0,0,1-2.069.658,14.541,14.541,0,0,1-2.7.219q-1.023,0-2.191-.024a5.211,5.211,0,0,1-1.656-.219,13.2,13.2,0,0,0,4.7-1.777,11.772,11.772,0,0,0,3.117-2.849,11.358,11.358,0,0,0,1.753-3.409,11.1,11.1,0,0,0,.024-6.891,9.014,9.014,0,0,0-1.8-3.263A10.1,10.1,0,0,0,125.985,52a11.38,11.38,0,0,0-5.016-1,10.793,10.793,0,0,0-5.941,1.559,12.993,12.993,0,0,0-3.92,3.822,16.013,16.013,0,0,0-2.142,4.821,18.661,18.661,0,0,0-.657,4.6,13.113,13.113,0,0,0,.463,3.287c.022.084.058.169.081.253l-4.78,5.322a36.7,36.7,0,0,0-.8-5.21,34.333,34.333,0,0,0-1.413-4.578,45.941,45.941,0,0,0-1.924-4.285Q98.865,58.5,97.55,56.354q-.876-1.411-1.7-2.532a2.358,2.358,0,0,0-1.9-1.12,4.665,4.665,0,0,0-1.729.338,4.869,4.869,0,0,0-1.509.94,4.368,4.368,0,0,0-1.047,1.494,4.941,4.941,0,0,0-.39,2,14.181,14.181,0,0,0-5.624,1.171,14.894,14.894,0,0,0-4.285,2.83,12.109,12.109,0,0,0-2.728,3.855,11.185,11.185,0,0,0-.778,2.528c-.094.1-.2.2-.292.3Q75,68.814,74.413,69.4a22.724,22.724,0,0,1-1.68,1.534A8.375,8.375,0,0,1,71,72.029a8.563,8.563,0,0,1-2.069.658,14.532,14.532,0,0,1-2.7.219q-1.023,0-2.191-.024a5.216,5.216,0,0,1-1.656-.219,13.2,13.2,0,0,0,4.7-1.777,11.764,11.764,0,0,0,3.116-2.85,11.358,11.358,0,0,0,1.753-3.409,11.1,11.1,0,0,0,.024-6.891,9.014,9.014,0,0,0-1.8-3.263,10.1,10.1,0,0,0-3.311-2.483,11.379,11.379,0,0,0-5.015-1,10.8,10.8,0,0,0-5.941,1.559,12.993,12.993,0,0,0-3.92,3.822,16.013,16.013,0,0,0-2.142,4.821,18.661,18.661,0,0,0-.657,4.6,13.136,13.136,0,0,0,.463,3.287c.06.231.152.465.223.7-.357.541-.689,1.073-.977,1.591a24.413,24.413,0,0,1-2.24,3.385,9.118,9.118,0,0,1-2.775,2.337,9.082,9.082,0,0,1-4.334.876q-.34,0-.73-.731a12.539,12.539,0,0,1-.755-1.777,19.411,19.411,0,0,1-.636-2.26,19.108,19.108,0,0,1-.366-2.191,50.289,50.289,0,0,0,5.5-11.346,40.767,40.767,0,0,0,2.094-13.246,48.784,48.784,0,0,0-.511-7.523,16.3,16.3,0,0,0-1.7-5.381,8.222,8.222,0,0,0-3.117-3.238,9.477,9.477,0,0,0-4.748-1.1,8.214,8.214,0,0,0-5.4,1.729,11.885,11.885,0,0,0-3.311,4.553,23.292,23.292,0,0,0-1.656,6.4,59.873,59.873,0,0,0-.438,7.28q0,3.166.365,7.231T25.3,64.652a73.833,73.833,0,0,0,2.07,8.253,37.336,37.336,0,0,0,3.068,7.231,17.943,17.943,0,0,0,4.138,5.113,8.129,8.129,0,0,0,5.308,1.924A18.807,18.807,0,0,0,46.56,86.1a16.563,16.563,0,0,0,5.016-2.97,22.973,22.973,0,0,0,3.968-4.53c.025-.037.051-.08.076-.117.306.251.594.517.922.751a16.251,16.251,0,0,0,4.211,2.118,16.007,16.007,0,0,0,5.187.8,26.274,26.274,0,0,0,5.77-.56,16.376,16.376,0,0,0,4.407-1.656,19.613,19.613,0,0,0,2.841-1.987,12.294,12.294,0,0,0,1.419,1.3,14.174,14.174,0,0,0,4.6,2.342,17.476,17.476,0,0,0,5.015.757,6.482,6.482,0,0,0,3.263-1,18.962,18.962,0,0,0,2.971-2.118c0,.454.007.746.024.876a2.467,2.467,0,0,0,.049.292c.016.065.032.153.049.268a7.12,7.12,0,0,1,.024.755q-2.775,3.214-5.4,6.452a51.378,51.378,0,0,0-4.651,6.744,38.172,38.172,0,0,0-3.263,7.353,26.64,26.64,0,0,0-1.241,8.23,11.566,11.566,0,0,0,.462,3.043,18.33,18.33,0,0,0,1.339,3.409,20.007,20.007,0,0,0,2.142,3.335,16.342,16.342,0,0,0,2.922,2.873,14.567,14.567,0,0,0,3.6,2.021,11.622,11.622,0,0,0,4.236.755,9.96,9.96,0,0,0,8.522-4.163,12.1,12.1,0,0,0,1.9-4.091,17.615,17.615,0,0,0,.584-4.407q0-2.386-.1-4.772t-.292-5.5q-.195-3.116-.487-7.256t-.633-10.03q1.558-1.753,2.727-2.923t2.313-2.215q1.144-1.048,2.41-2.264c.106-.1.222-.217.333-.325a16.767,16.767,0,0,0,1.858,1.543,16.246,16.246,0,0,0,4.212,2.118,16,16,0,0,0,5.186.8,26.273,26.273,0,0,0,5.77-.56,16.377,16.377,0,0,0,4.407-1.656,19.707,19.707,0,0,0,3.628-2.629,45.114,45.114,0,0,0,3.433-3.531,4.423,4.423,0,0,0,.78-1.232,12.255,12.255,0,0,0,.972-1.4q.877-1.412,1.412-2.313t.974-1.558q.438-.658.876-1.193a13.011,13.011,0,0,1,1.169-1.218,4.481,4.481,0,0,1,.876,1.9,17.838,17.838,0,0,1,.341,2.362q.1,1.243.244,2.46a6.622,6.622,0,0,0,.632,2.192,3.9,3.9,0,0,0,1.461,1.583,5.145,5.145,0,0,0,2.727.608,4.536,4.536,0,0,0,2.873-.95,4.008,4.008,0,0,0,1.509-2.508,36.8,36.8,0,0,1,1.071-4.456,6.735,6.735,0,0,1,2.289-3.335,21.932,21.932,0,0,0,1.778,3.457,19.49,19.49,0,0,0,2.97,3.7,17,17,0,0,0,4.042,2.946,10.43,10.43,0,0,0,4.943,1.194,16.324,16.324,0,0,0,3.585-.374,10.508,10.508,0,0,0,.942.983,11.629,11.629,0,0,0,3.482,2.07,10.71,10.71,0,0,0,3.823.73,14.094,14.094,0,0,0,4.748-.8,42.254,42.254,0,0,0,4.017-1.632,14,14,0,0,0,1.729,1.632,14.429,14.429,0,0,0,2.166,1.436,15.066,15.066,0,0,0,2.411,1.046,7.887,7.887,0,0,0,2.507.414,10.609,10.609,0,0,0,4.845-1.169,16.364,16.364,0,0,0,4.066-2.873c.2-.2.391-.4.58-.6a15.853,15.853,0,0,0,1.392.8,11.9,11.9,0,0,0,5.429,1.315,8.772,8.772,0,0,0,2.435-.367,10.382,10.382,0,0,0,2.386-1.028,10.789,10.789,0,0,0,2.069-1.591,7.2,7.2,0,0,0,1.485-2.056,14.509,14.509,0,0,0,1.217,1.493,11.848,11.848,0,0,0,1.826,1.616,11.537,11.537,0,0,0,2.337,1.3,7.2,7.2,0,0,0,2.8.538,12.933,12.933,0,0,0,3.335-.585,18.318,18.318,0,0,0,4.018-1.68,12.776,12.776,0,0,0,3.36-2.7,5.382,5.382,0,0,0,1.412-3.652,4.787,4.787,0,0,0-.438-2.118M35.239,52.064q-.122,2.24-.292,4.285t-.414,3.628a8.512,8.512,0,0,1-.487,2.069,5.849,5.849,0,0,1-.487-1.972q-.2-1.485-.317-3.506T33.1,52.283q-.026-2.264-.025-4.309,0-1.656.1-3.385t.292-3.092a13.148,13.148,0,0,1,.487-2.24c.2-.585.421-.876.682-.876q.243,0,.389,1.023t.219,2.532q.073,1.509.1,3.165t.024,2.873q0,1.85-.122,4.09M60,64.92a7.759,7.759,0,0,1-1.558.876q.1-.876.292-1.826a8.714,8.714,0,0,1,.56-1.778,4.02,4.02,0,0,1,.949-1.363,2.217,2.217,0,0,1,1.558-.536,1.852,1.852,0,0,1,.926.22.75.75,0,0,1,.39.705,2.163,2.163,0,0,1-.439,1.145,7.556,7.556,0,0,1-1.144,1.315A14.806,14.806,0,0,1,60,64.92m32.65,7.353a4.519,4.519,0,0,1-2.605.779,12.786,12.786,0,0,1-2-.146,4.663,4.663,0,0,1-1.607-.535A2.822,2.822,0,0,1,85.369,71.3a3.388,3.388,0,0,1-.39-1.7,1.567,1.567,0,0,1,.438-1.071,4.052,4.052,0,0,1,1.12-.852,7.031,7.031,0,0,1,1.485-.585,5.84,5.84,0,0,1,1.534-.219,5.251,5.251,0,0,1,1.924.317,4.584,4.584,0,0,1,1.314.755,3.152,3.152,0,0,1,.755.9,1.8,1.8,0,0,1,.244.8,2.949,2.949,0,0,1-1.145,2.63m5.26,42.754a2.7,2.7,0,0,1-.487.926,1.173,1.173,0,0,1-.536.364,1.689,1.689,0,0,1-.366.073,4.005,4.005,0,0,1-1.947-.536,6.812,6.812,0,0,1-1.753-1.388,7.065,7.065,0,0,1-1.266-1.972,5.682,5.682,0,0,1-.487-2.288,14.9,14.9,0,0,1,.438-3.19,30.538,30.538,0,0,1,1.242-4.041,34.921,34.921,0,0,1,1.948-4.237A27.735,27.735,0,0,1,97.2,94.867q.194,4.09.389,6.939t.293,4.918q.1,2.069.17,3.579t.073,2.971a5.568,5.568,0,0,1-.219,1.753M119.114,64.92a7.734,7.734,0,0,1-1.558.876q.1-.876.293-1.826a8.714,8.714,0,0,1,.56-1.778,4.02,4.02,0,0,1,.949-1.363,2.217,2.217,0,0,1,1.558-.536,1.852,1.852,0,0,1,.926.22.75.75,0,0,1,.39.7,2.166,2.166,0,0,1-.438,1.145,7.583,7.583,0,0,1-1.144,1.315,14.809,14.809,0,0,1-1.534,1.242m74.454,2.507a5.883,5.883,0,0,1-1.534,1.51,6.587,6.587,0,0,1-1.972.9,7.448,7.448,0,0,1-1.947.292,3.979,3.979,0,0,1-1.1-.146.676.676,0,0,1-.511-.731,3.639,3.639,0,0,1,.828-2.313,9.358,9.358,0,0,1,1.875-1.8,11.234,11.234,0,0,1,2.045-1.193,10.633,10.633,0,0,1,1.388-.536q1.071,0,1.315.585a3.391,3.391,0,0,1,.243,1.315,3.592,3.592,0,0,1-.633,2.118m29.313,1.393q-.437.774-.974.775a3.326,3.326,0,0,1-1.217-.388,7.231,7.231,0,0,1-3.092-2.881,4.468,4.468,0,0,1-.608-2.3,1.768,1.768,0,0,1,.267-.9,3.587,3.587,0,0,1,.73-.872,4.258,4.258,0,0,1,1.12-.7,4.091,4.091,0,0,1,1.388-.339,2.277,2.277,0,0,1,1.485.7,4.054,4.054,0,0,1,.852,1.453,7.966,7.966,0,0,1,.39,1.742,14.511,14.511,0,0,1,.1,1.525,4.461,4.461,0,0,1-.438,2.179" transform="translate(-11.567 -11.568)" fill="#fff"></path></g></svg>