<svg xmlns="http://www.w3.org/2000/svg" xmlns:xlink="http://www.w3.org/1999/xlink" width="1007.303" height="226.612" viewBox="0 0 1007.303 226.612"><defs><clipPath id="clip-path"><rect id="Rectangle_812" data-name="Rectangle 812" width="1007.303" height="226.612" fill="#e63312"></rect></clipPath></defs><g id="Group_13295" data-name="Group 13295" transform="translate(0 -7)"><g id="Group_13294" data-name="Group 13294" transform="translate(0 7)" clip-path="url(#clip-path)"><path id="Path_28674" data-name="Path 28674" d="M6.461,67.722c0-13.7,15.347-26.351,24.231-26.351,3.432,0,8.076,3.953,8.076,9.485S36.143,65.614,32.1,65.614a4.182,4.182,0,0,1-4.24-4.48c0-4.478,3.029-5.27,3.029-6.324,0-1.581-1.413-3.426-3.029-3.426-2.827,0-12.318,7.115-12.318,14.757,0,7.378,14.539,6.324,14.539,23.189,0,8.7-5.855,18.182-17.568,18.182C5.451,107.511,0,100.923,0,94.6c0-3.689,2.019-6.588,4.442-6.588a3.645,3.645,0,0,1,3.634,3.953c0,4.478,1.817,7.115,5.655,7.115,4.24,0,7.067-4.48,7.067-9.75,0-10.277-14.337-9.75-14.337-21.608" transform="translate(0 42.159)" fill="#e63312"></path><path id="Path_28675" data-name="Path 28675" d="M53.3,46.24c0,3.426-4.038,9.223-6.663,15.02-.808,1.845-1.413,2.9-1.413,3.951,0,.527.2,1.054.606,1.054C58.958,47.029,70.265,42.024,73.7,42.024c3.23,0,7.269,4.216,7.269,12.385,0,14.755-15.345,52.437-38.364,52.437-4.24,0-6.865-3.953-7.672-3.953-3.836,0-14.943,44.005-14.943,63.505,0,5.532,1.01,7.378,1.01,10.539,0,2.9-2.825,6.851-5.451,6.851-2.423,0-4.846-2.37-4.846-8.694,0-22.662,9.288-59.025,14.135-76.679,4.24-15.811,11.912-38.473,14.335-44.8,2.625-6.324,5.25-11.593,8.682-11.593,2.019,0,5.451,1.054,5.451,4.216m-9.893,49.8c16.76,0,28.269-31.093,28.269-37.944,0-1.845-1.01-3.689-3.029-3.689-7.269,0-27.865,24.505-31.5,37.417,0,0,2.019,4.216,6.259,4.216" transform="translate(10.903 42.824)" fill="#e63312"></path><path id="Path_28676" data-name="Path 28676" d="M87.087,50.718c0,2.108,0,8.169,3.23,8.169,8.278,0,16.154-7.378,18.173-7.378s3.634,1.843,3.634,4.478-2.625,5.8-9.288,9.75c-7.473,4.48-16.76,4.48-17.568,4.48-4.24,15.809-13.53,36.628-27.663,36.628-5.653,0-11.307-5.534-11.307-16.865,0-24.505,15.749-47.956,29.884-47.956,7.47,0,10.9,4.743,10.9,8.694M54.78,89.98c0,4.743,2.423,7.642,5.048,7.642C67.7,97.623,78,73.907,78,66c0-.791-3.031-2.108-3.031-5.534,0-2.635.608-4.743.608-5.8q0-.79-.608-.791c-8.682,0-20.19,18.973-20.19,36.1" transform="translate(47.182 42.824)" fill="#e63312"></path><path id="Path_28677" data-name="Path 28677" d="M110.487,50.718c0,2.108,0,8.169,3.23,8.169,8.278,0,16.154-7.378,18.173-7.378s3.634,1.843,3.634,4.478-2.625,5.8-9.288,9.75c-7.473,4.48-16.76,4.48-17.568,4.48-4.24,15.809-13.53,36.628-27.663,36.628-5.653,0-11.307-5.534-11.307-16.865,0-24.505,15.749-47.956,29.884-47.956,7.47,0,10.9,4.743,10.9,8.694M78.18,89.98c0,4.743,2.423,7.642,5.048,7.642C91.1,97.623,101.4,73.907,101.4,66c0-.791-3.031-2.108-3.031-5.534,0-2.635.608-4.743.608-5.8q0-.79-.608-.791c-8.682,0-20.19,18.973-20.19,36.1" transform="translate(71.028 42.824)" fill="#e63312"></path><path id="Path_28678" data-name="Path 28678" d="M177.085,66.291c2.423-3.953,4.038-6.588,6.259-6.588,1.817,0,2.827,1.581,2.827,3.689,0,2.372-.808,3.953-3.23,7.642-9.49,15.02-23.017,35.309-32.307,35.309-10.5,0-11.71-14.228-11.71-25.559,0-5.27,1.413-11.593,1.413-17.919,0-2.37-.4-4.216-2.423-4.216-6.259,0-24.836,27.14-29.682,35.574-4.038,7.378-5.048,16.6-7.874,16.6-3.029,0-6.057-1.054-6.057-5.27,0-3.953,8.278-35.309,11.912-50.593,2.625-11.331,3.634-15.547,9.086-15.547a3.991,3.991,0,0,1,3.23,4.216c0,7.115-7.067,28.2-7.067,31.358,0,.789.4,1.054.808,1.054.606,0,19.385-30.566,30.086-30.566,4.038,0,7.269,4.216,7.269,9.75,0,5.27-1.211,18.444-1.211,25.295,0,8.961,0,15.284,4.846,15.284,5.048,0,16.558-16.865,23.827-29.512" transform="translate(96.096 40.164)" fill="#e63312"></path><path id="Path_28679" data-name="Path 28679" d="M143.541,87.069h5.048a446.05,446.05,0,0,1,17.97-46.9c9.492-21.606,24.433-38.206,32.307-38.206,5.857,0,10.9,3.951,10.9,8.432,0,5.27-2.827,9.75-5.25,9.75a3.186,3.186,0,0,1-3.23-3.426c0-2.372-.406-3.689-2.625-3.689-4.442,0-13.732,8.432-23.423,29.512-6.057,13.174-9.693,22.4-17.568,44.532h22.413c2.019,0,3.432,2.108,3.432,4.216s-1.413,3.689-2.827,3.689c-8.886,0-18.777,1.054-26.452,1.845-9.086,26.613-17.768,61.922-17.768,80.368,0,4.478.806,4.478.806,9.223,0,2.108-2.019,4.743-4.038,4.743s-4.642-2.635-4.642-10.014c0-21.079,8.68-59.814,16.354-83.266-4.846,0-6.259,0-6.259-3.162,0-3.953,1.817-7.642,4.846-7.642" transform="translate(131.05 1.995)" fill="#e63312"></path><path id="Path_28680" data-name="Path 28680" d="M215.261,63.631c2.221-3.953,4.038-6.588,6.057-6.588s2.827,1.581,2.827,3.689c0,2.372-.808,3.953-3.029,7.642-9.691,15.02-23.423,35.574-32.307,35.574-7.067,0-8.48-7.38-8.48-13.7,0-2.9.4-5.27.4-7.115-7.269,9.488-18.173,22.662-26.653,22.662-6.663,0-8.48-6.586-8.48-10.8,0-13.176,12.316-27.4,12.316-42.424,0-6.061,1.211-10.541,5.05-10.541s4.24,3.689,4.24,8.169c0,15.547-12.52,34.255-12.52,41.9,0,2.108.4,3.689,2.423,3.689,3.636,0,16.962-12.912,23.019-25.032,3.029-6.588,6.865-16.6,9.691-21.345,1.817-3.162,3.836-5.27,5.048-5.27,3.434,0,4.242,2.635,4.242,5.007a18.687,18.687,0,0,1-2.425,6.061,66.819,66.819,0,0,0-6.461,16.336c-1.615,6.588-2.625,12.385-2.625,16.338s1.01,6.059,2.625,6.059c4.848,0,17.568-17.655,25.038-30.3" transform="translate(148.373 42.823)" fill="#e63312"></path><path id="Path_28681" data-name="Path 28681" d="M225.55,106.056c2.423-3.953,4.038-6.588,6.259-6.588,1.817,0,2.827,1.581,2.827,3.691,0,2.37-.808,3.951-3.23,7.64-9.49,15.02-27.057,38.208-38.568,38.208-6.661,0-14.537-7.115-14.537-19.235,0-22.4,13.126-62.978,24.634-88.8C215.049,13.83,224.134.391,235.443.391c3.836,0,7.874,5.534,7.874,10.8,0,7.642-3.23,23.716-17.768,47.958-13.126,21.606-22.615,30.3-31.5,39.525-3.634,7.64-6.463,22.4-6.463,28.194,0,7.642,2.221,12.385,6.665,12.385,8.682,0,24.027-20.554,31.3-33.2M210.2,44.4C199.5,68.9,197.079,79.97,196.473,84.186,199.1,82.6,209.193,71.009,220.1,51.774,232.011,30.43,234.434,22.526,234.434,16.2c0-2.637-1.01-3.691-3.029-3.691-2.625,0-10.9,7.38-21.2,31.885" transform="translate(181.696 0.398)" fill="#e63312"></path><path id="Path_28682" data-name="Path 28682" d="M264.082,98.136a35.815,35.815,0,0,1-10.5-1.318,5.746,5.746,0,0,1,.606,2.9c0,2.108-.606,5.534-2.019,11.331-4.038,15.809-13.53,36.628-27.663,36.628-5.653,0-11.307-5.534-11.307-16.865,0-24.505,15.749-47.956,29.884-47.956,7.47,0,10.9,3.16,15.143,4.216a35.928,35.928,0,0,0,5.653.527c2.425,0,5.855-.265,9.9-.527a405.538,405.538,0,0,1,17.97-46.9c9.49-21.608,24.432-38.208,32.307-38.208,5.653,0,10.9,3.953,10.9,8.434,0,5.27-3.029,9.75-5.252,9.75-2.019,0-3.23-1.318-3.23-3.426,0-2.372-.606-3.689-2.827-3.689-4.24,0-13.528,8.432-23.423,29.512-6.057,13.174-9.691,22.4-17.364,44.532h22.413c2.019,0,3.432,2.108,3.432,4.216s-1.413,3.689-3.029,3.689c-8.886,0-18.577,1.054-26.25,1.843-9.086,26.615-21,61.924-21,80.368,0,4.48,1.01,4.48,1.01,9.223,0,2.108-2.221,4.743-4.24,4.743s-4.442-2.635-4.442-10.012c0-21.081,11.509-59.814,19.383-83.266a46.776,46.776,0,0,1-6.057.262m-42.4,32.674c0,4.743,2.423,7.642,5.048,7.642,7.874,0,18.173-23.716,18.173-31.62,0-.791-3.031-2.108-3.031-5.534,0-2.635.608-4.743.608-5.8q0-.79-.608-.791c-8.682,0-20.19,18.973-20.19,36.1" transform="translate(217.261 1.994)" fill="#e63312"></path><path id="Path_28683" data-name="Path 28683" d="M346.78,106.454c2.223-3.951,4.038-6.586,6.057-6.586s2.829,1.581,2.829,3.689c0,2.37-.81,3.951-3.029,7.642-9.691,15.02-25.442,37.944-35.537,37.944-8.078,0-11.511-6.061-11.511-16.338,0-6.851,3.029-19.5,3.029-22.133s-.4-4.745-3.029-4.745c-8.884,0-28.267,26.088-31.3,39.789-1.213,5.534-3.434,7.378-5.855,7.378-2.221,0-4.04-3.162-4.04-7.9,0-11.858,12.722-63.241,31.5-102.5C309.226,14.755,322.35,0,330.628,0c3.836,0,8.682,4.216,8.682,10.8,0,7.9-2.219,24.243-17.162,46.64-15.95,23.978-28.067,31.62-35.133,40.579-4.24,5.27-8.076,21.081-8.48,22.924,9.689-15.547,23.017-26.351,31.7-26.351,6.057,0,8.276,4.218,8.276,10.541,0,6.588-3.029,20.554-3.029,26.086,0,4.743,1.01,7.378,4.038,7.378,7.271,0,19.789-19.5,27.259-32.147m-43.21-60.341c-10.1,21.87-13.931,36.363-13.931,36.363s13.126-8.7,25.844-28.721c14.135-22.662,16.56-34.255,16.56-39,0-2.9-1.415-3.689-3.031-3.689-5.451,0-15.549,13.439-25.442,35.047" transform="translate(269.435)" fill="#e63312"></path><path id="Path_28684" data-name="Path 28684" d="M352.3,42.942c3.232,0,5.252,2.37,5.252,5.534,0,3.424-5.252,12.385-9.492,22.924-2.421,5.8-3.632,11.066-3.632,15.02,0,3.424.806,6.324,2.623,6.324,7.273,0,19.387-16.863,26.855-29.512,2.221-3.953,4.038-6.586,6.057-6.586s2.829,1.579,2.829,3.689c0,2.37-.81,3.951-3.029,7.64-9.7,15.02-25.44,35.309-35.539,35.309-6.259,0-9.49-5.8-9.49-12.383,0-2.9.4-6.588.4-8.961,0-1.581,0-2.37-.4-2.37-1.209,0-4.444,5.005-8.884,10.275-9.492,10.8-15.751,16.076-20.4,16.076-2.019,0-6.057-3.953-6.057-10.277,0-26.878,22.01-52.964,38.568-53.228,3.836,0,7.472,6.061,8.278,6.061,1.615,0,2.625-5.534,6.057-5.534M308.69,90.109c0,1.581.8,3.162,2.421,3.162,3.43,0,29.682-29.775,29.682-34.255,0-1.316-3.434-.527-3.434-3.426,0-1.581-.6-3.162-2.219-3.162-8.684,0-26.45,24.77-26.45,37.682" transform="translate(305.101 43.223)" fill="#e63312"></path><path id="Path_28685" data-name="Path 28685" d="M366.7,46.24c0,3.426-4.038,9.223-6.661,15.02-.81,1.845-1.415,2.9-1.415,3.951,0,.527.2,1.054.606,1.054,13.126-19.235,24.433-24.241,27.865-24.241,3.233,0,7.271,4.216,7.271,12.385,0,14.755-15.347,52.437-38.364,52.437-4.242,0-6.867-3.953-7.674-3.953-3.836,0-14.943,44.005-14.943,63.505,0,5.532,1.01,7.378,1.01,10.539,0,2.9-2.825,6.851-5.451,6.851-2.423,0-4.844-2.37-4.844-8.694,0-22.662,9.286-59.025,14.133-76.679,4.24-15.811,11.912-38.473,14.335-44.8,2.625-6.324,5.25-11.593,8.682-11.593,2.019,0,5.451,1.054,5.451,4.216m-9.893,49.8c16.76,0,28.269-31.093,28.269-37.944,0-1.845-1.01-3.689-3.029-3.689-7.269,0-27.865,24.505-31.5,37.417,0,0,2.019,4.216,6.259,4.216" transform="translate(330.272 42.824)" fill="#e63312"></path><path id="Path_28686" data-name="Path 28686" d="M393.4,46.24c0,3.426-4.038,9.223-6.665,15.02-.808,1.845-1.411,2.9-1.411,3.951,0,.527.2,1.054.6,1.054,13.124-19.235,24.435-24.241,27.865-24.241,3.23,0,7.269,4.216,7.269,12.385,0,14.755-15.345,52.437-38.364,52.437-4.238,0-6.867-3.953-7.672-3.953-3.838,0-14.943,44.005-14.943,63.505,0,5.532,1.01,7.378,1.01,10.539,0,2.9-2.825,6.851-5.451,6.851-2.421,0-4.846-2.37-4.846-8.694,0-22.662,9.288-59.025,14.135-76.679,4.238-15.811,11.91-38.473,14.333-44.8,2.627-6.324,5.254-11.593,8.684-11.593,2.019,0,5.453,1.054,5.453,4.216m-9.893,49.8c16.76,0,28.267-31.093,28.267-37.944,0-1.845-1.01-3.689-3.029-3.689-7.269,0-27.865,24.505-31.5,37.417,0,0,2.019,4.216,6.263,4.216" transform="translate(357.48 42.824)" fill="#e63312"></path><path id="Path_28687" data-name="Path 28687" d="M425.681,87.569c2.421-3.953,4.038-6.588,6.259-6.588,1.817,0,2.827,1.581,2.827,3.691,0,2.37-.808,3.951-3.029,7.64-9.693,15.02-27.865,37.417-37.962,37.417-3.432,0-8.276-4.743-8.276-13.439,0-11.593,10.3-37.417,11.912-41.368,2.221-5.007,4.038-9.223,6.663-9.223a5.011,5.011,0,0,1,4.644,4.743c0,2.9-2.019,5.534-3.836,9.485-4.442,10.014-10.5,28.458-10.5,34.255,0,2.372,1.01,5.272,3.634,5.272,5.855,0,20.392-19.237,27.663-31.885m4.038-61.66c0,6.324-5.451,10.012-7.874,10.012S418.41,30.39,418.41,26.7s2.829-8.169,6.867-8.169c2.019,0,4.442,2.108,4.442,7.378" transform="translate(392.843 18.885)" fill="#e63312"></path><path id="Path_28688" data-name="Path 28688" d="M483.486,66.291c2.423-3.953,4.038-6.588,6.259-6.588,1.817,0,2.827,1.581,2.827,3.689,0,2.372-.808,3.953-3.232,7.642-9.49,15.02-23.017,35.309-32.307,35.309-10.5,0-11.708-14.228-11.708-25.559,0-5.27,1.413-11.593,1.413-17.919,0-2.37-.4-4.216-2.423-4.216-6.261,0-24.836,27.14-29.684,35.574-4.038,7.378-5.048,16.6-7.874,16.6-3.029,0-6.057-1.054-6.057-5.27,0-3.953,8.28-35.309,11.912-50.593,2.625-11.331,3.634-15.547,9.086-15.547a3.992,3.992,0,0,1,3.233,4.216c0,7.115-7.067,28.2-7.067,31.358,0,.789.4,1.054.806,1.054.608,0,19.385-30.566,30.088-30.566,4.038,0,7.267,4.216,7.267,9.75,0,5.27-1.209,18.444-1.209,25.295,0,8.961,0,15.284,4.846,15.284,5.048,0,16.556-16.865,23.827-29.512" transform="translate(408.332 40.164)" fill="#e63312"></path><path id="Path_28689" data-name="Path 28689" d="M492.323,63.364c2.423-3.953,4.242-6.586,6.261-6.586s2.827,1.579,2.827,3.689c0,2.37-.808,3.951-3.029,7.64-9.693,15.02-26.25,38.473-48.661,38.473-6.261,0-12.116-8.434-12.116-16.865,0-2.635-.606-3.426-.606-6.061a8.167,8.167,0,0,1,3.432-6.324c8.28-25.032,21.808-35.045,32.1-35.045,3.836,0,8.278,4.216,8.278,9.221,0,13.439-17.566,28.723-30.084,32.412-3.636,1.054-3.838,2.635-3.838,5.27s1.211,7.9,6.057,7.9c17.77,0,32.107-21.079,39.373-33.728M449.517,75.749c7.069-.262,23.019-15.02,23.019-20.554,0-2.108-.808-2.635-2.423-2.635-6.259,0-17.568,16.865-20.6,23.189" transform="translate(445.323 43.09)" fill="#e63312"></path><path id="Path_28690" data-name="Path 28690" d="M468.06,67.722c0-13.7,15.347-26.351,24.231-26.351,3.432,0,8.076,3.953,8.076,9.485s-2.625,14.757-6.665,14.757a4.181,4.181,0,0,1-4.238-4.48c0-4.478,3.029-5.27,3.029-6.324,0-1.581-1.415-3.426-3.029-3.426-2.829,0-12.318,7.115-12.318,14.757,0,7.378,14.537,6.324,14.537,23.189,0,8.7-5.853,18.182-17.566,18.182-7.067,0-12.518-6.588-12.518-12.912,0-3.689,2.019-6.588,4.442-6.588a3.646,3.646,0,0,1,3.634,3.953c0,4.478,1.817,7.115,5.653,7.115,4.24,0,7.069-4.48,7.069-9.75,0-10.277-14.337-9.75-14.337-21.608" transform="translate(470.392 42.159)" fill="#e63312"></path><path id="Path_28691" data-name="Path 28691" d="M486.16,67.722c0-13.7,15.347-26.351,24.231-26.351,3.432,0,8.076,3.953,8.076,9.485s-2.625,14.757-6.663,14.757a4.182,4.182,0,0,1-4.24-4.48c0-4.478,3.031-5.27,3.031-6.324,0-1.581-1.415-3.426-3.031-3.426-2.827,0-12.316,7.115-12.316,14.757,0,7.378,14.537,6.324,14.537,23.189,0,8.7-5.855,18.182-17.566,18.182-7.069,0-12.52-6.588-12.52-12.912,0-3.689,2.019-6.588,4.442-6.588a3.646,3.646,0,0,1,3.636,3.953c0,4.478,1.815,7.115,5.653,7.115,4.24,0,7.067-4.48,7.067-9.75,0-10.277-14.337-9.75-14.337-21.608" transform="translate(488.836 42.159)" fill="#e63312"></path></g></g></svg>